<?xml version="1.0" encoding="UTF-8"?>
<svg xmlns="http://www.w3.org/2000/svg" viewBox="0 0 64 64" width="64" height="64">
  <!-- Morpho butterfly-inspired logo -->
  <circle cx="32" cy="32" r="30" fill="#2973FF" stroke="#1e5fff" stroke-width="2"/>
  
  <!-- Abstract butterfly/morpho shape -->
  <g transform="translate(32,32)">
    <!-- Upper wings -->
    <path d="M0,-12 C-8,-16 -12,-8 -8,0 C-4,-4 0,-8 0,-12 Z" fill="white" opacity="0.9"/>
    <path d="M0,-12 C8,-16 12,-8 8,0 C4,-4 0,-8 0,-12 Z" fill="white" opacity="0.9"/>
    
    <!-- Lower wings -->
    <path d="M0,12 C-8,16 -12,8 -8,0 C-4,4 0,8 0,12 Z" fill="white" opacity="0.8"/>
    <path d="M0,12 C8,16 12,8 8,0 C4,4 0,8 0,12 Z" fill="white" opacity="0.8"/>
    
    <!-- Body -->
    <ellipse cx="0" cy="0" rx="2" ry="16" fill="white" opacity="0.9"/>
    
    <!-- Antennae -->
    <path d="M0,-16 C-2,-18 -4,-18 -4,-20" stroke="white" stroke-width="1" fill="none" opacity="0.7"/>
    <path d="M0,-16 C2,-18 4,-18 4,-20" stroke="white" stroke-width="1" fill="none" opacity="0.7"/>
    <circle cx="-4" cy="-20" r="1" fill="white" opacity="0.7"/>
    <circle cx="4" cy="-20" r="1" fill="white" opacity="0.7"/>
  </g>
</svg>