<?xml version="1.0" encoding="UTF-8"?>
<svg xmlns="http://www.w3.org/2000/svg" viewBox="0 0 64 64" width="64" height="64">
  <!-- Morpho's signature blue background -->
  <rect width="64" height="64" rx="12" fill="#2973FF"/>
  
  <!-- Authentic Morpho butterfly symbol (inspired by the official logo) -->
  <g transform="translate(32,32) scale(0.8)">
    <!-- Upper left wing -->
    <path d="M-18,-12 L-8,-8 L-12,4 L-22,0 Z" fill="white"/>
    <!-- Upper right wing -->  
    <path d="M18,-12 L8,-8 L12,4 L22,0 Z" fill="white"/>
    <!-- Lower left wing -->
    <path d="M-18,8 L-8,12 L-12,20 L-22,16 Z" fill="white" opacity="0.8"/>
    <!-- Lower right wing -->
    <path d="M18,8 L8,12 L12,20 L22,16 Z" fill="white" opacity="0.8"/>
    <!-- Butterfly body -->
    <ellipse cx="0" cy="2" rx="2" ry="16" fill="white"/>
    <!-- Antennae -->
    <path d="M-2,-14 Q-6,-18 -4,-20" stroke="white" stroke-width="1.5" fill="none"/>
    <path d="M2,-14 Q6,-18 4,-20" stroke="white" stroke-width="1.5" fill="none"/>
    <!-- Wing details -->
    <circle cx="-12" cy="-4" r="2" fill="#2973FF" opacity="0.6"/>
    <circle cx="12" cy="-4" r="2" fill="#2973FF" opacity="0.6"/>
  </g>
</svg>